<mxfile host="app.diagrams.net" modified="2023-05-08T02:27:01.953Z" agent="Mozilla/5.0 (Windows NT 10.0; Win64; x64) AppleWebKit/537.36 (KHTML, like Gecko) Chrome/113.0.0.0 Safari/537.36" etag="KsirC5Sqe1u8CITVS9BV" version="21.2.9" type="github">
  <diagram name="第 1 页" id="79G6FSM7aQCFSl0hBk_r">
    <mxGraphModel dx="1434" dy="1925" grid="1" gridSize="10" guides="1" tooltips="1" connect="1" arrows="1" fold="1" page="1" pageScale="1" pageWidth="827" pageHeight="1169" math="0" shadow="0">
      <root>
        <mxCell id="0" />
        <mxCell id="1" parent="0" />
        <mxCell id="0UwNHE324P2pnnzVtQ3k-8" style="edgeStyle=orthogonalEdgeStyle;rounded=0;orthogonalLoop=1;jettySize=auto;html=1;exitX=0;exitY=1;exitDx=0;exitDy=0;entryX=0.667;entryY=0;entryDx=0;entryDy=0;entryPerimeter=0;" edge="1" parent="1" source="0UwNHE324P2pnnzVtQ3k-2" target="0UwNHE324P2pnnzVtQ3k-3">
          <mxGeometry relative="1" as="geometry" />
        </mxCell>
        <mxCell id="0UwNHE324P2pnnzVtQ3k-10" style="edgeStyle=orthogonalEdgeStyle;rounded=0;orthogonalLoop=1;jettySize=auto;html=1;exitX=1;exitY=1;exitDx=0;exitDy=0;entryX=0.5;entryY=0;entryDx=0;entryDy=0;" edge="1" parent="1" source="0UwNHE324P2pnnzVtQ3k-2" target="0UwNHE324P2pnnzVtQ3k-5">
          <mxGeometry relative="1" as="geometry" />
        </mxCell>
        <mxCell id="0UwNHE324P2pnnzVtQ3k-13" style="edgeStyle=orthogonalEdgeStyle;rounded=0;orthogonalLoop=1;jettySize=auto;html=1;exitX=0.5;exitY=1;exitDx=0;exitDy=0;entryX=0.5;entryY=0;entryDx=0;entryDy=0;" edge="1" parent="1" source="0UwNHE324P2pnnzVtQ3k-2" target="0UwNHE324P2pnnzVtQ3k-4">
          <mxGeometry relative="1" as="geometry" />
        </mxCell>
        <mxCell id="0UwNHE324P2pnnzVtQ3k-2" value="" style="ellipse;whiteSpace=wrap;html=1;" vertex="1" parent="1">
          <mxGeometry x="340" y="-10" width="120" height="80" as="geometry" />
        </mxCell>
        <mxCell id="0UwNHE324P2pnnzVtQ3k-3" value="" style="rounded=0;whiteSpace=wrap;html=1;" vertex="1" parent="1">
          <mxGeometry x="160" y="120" width="120" height="60" as="geometry" />
        </mxCell>
        <mxCell id="0UwNHE324P2pnnzVtQ3k-4" value="" style="rounded=0;whiteSpace=wrap;html=1;" vertex="1" parent="1">
          <mxGeometry x="340" y="120" width="120" height="60" as="geometry" />
        </mxCell>
        <mxCell id="0UwNHE324P2pnnzVtQ3k-5" value="" style="rounded=0;whiteSpace=wrap;html=1;" vertex="1" parent="1">
          <mxGeometry x="550" y="120" width="120" height="60" as="geometry" />
        </mxCell>
      </root>
    </mxGraphModel>
  </diagram>
</mxfile>
